HIERARCHY
ROOT hip
{
  OFFSET 0 90.174 2.4664
  CHANNELS 6 Xposition Yposition Zposition Zrotation Xrotation Yrotation
  JOINT abdomen
  {
    OFFSET 0 -1.186 -1.5018
    CHANNELS 6 Xposition Yposition Zposition Zrotation Xrotation Yrotation
    JOINT abdomen2
    {
      OFFSET 0 9.964 0.2134
      CHANNELS 6 Xposition Yposition Zposition Zrotation Xrotation Yrotation
      JOINT chest
      {
        OFFSET 0 13.134 -3.2573
        CHANNELS 6 Xposition Yposition Zposition Zrotation Xrotation Yrotation
        JOINT neck
        {
          OFFSET 0 20.686 -1.6905
          CHANNELS 6 Xposition Yposition Zposition Zrotation Xrotation Yrotation
          JOINT head
          {
            OFFSET 0 7.238 -0.1237
            CHANNELS 6 Xposition Yposition Zposition Zrotation Xrotation Yrotation
            End Site
            {
              OFFSET 0 0 0
            }
          }
        }
        JOINT lCollar
        {
          OFFSET 1.7069 20.075 5.0056
          CHANNELS 6 Xposition Yposition Zposition Zrotation Xrotation Yrotation
          JOINT lShldr
          {
            OFFSET 13.6458 -0.047 -4.849
            CHANNELS 6 Xposition Yposition Zposition Zrotation Xrotation Yrotation
            JOINT lForeArm
            {
              OFFSET 28.3255 -0.9759 2.2888
              CHANNELS 6 Xposition Yposition Zposition Zrotation Xrotation Yrotation
              JOINT lHand
              {
                OFFSET 22.1583 -0.53 10.8316
                CHANNELS 6 Xposition Yposition Zposition Zrotation Xrotation Yrotation
                JOINT lThumb1
                {
                  OFFSET 0.786 0.112 2.5817
                  CHANNELS 6 Xposition Yposition Zposition Zrotation Xrotation Yrotation
                  JOINT lThumb2
                  {
                    OFFSET 0.3601 -0.878 4.2331
                    CHANNELS 6 Xposition Yposition Zposition Zrotation Xrotation Yrotation
                    JOINT lThumb2_End
                    {
                      OFFSET 1.8127 -1.216 2.2227
                      CHANNELS 6 Xposition Yposition Zposition Zrotation Xrotation Yrotation
                      End Site
                      {
                        OFFSET 0.0181 -0.0122 0.0222
                      }
                    }
                  }
                }
                JOINT lCarpal1
                {
                  OFFSET 0.9571 1.114 1.7695
                  CHANNELS 6 Xposition Yposition Zposition Zrotation Xrotation Yrotation
                  JOINT lIndex1
                  {
                    OFFSET 4.1246 0.487 4.1451
                    CHANNELS 6 Xposition Yposition Zposition Zrotation Xrotation Yrotation
                    JOINT lIndex2
                    {
                      OFFSET 3.4052 -1.454 2.7682
                      CHANNELS 6 Xposition Yposition Zposition Zrotation Xrotation Yrotation
                      JOINT lIndex2_End
                      {
                        OFFSET 1.4531 -1.795 1.2713
                        CHANNELS 6 Xposition Yposition Zposition Zrotation Xrotation Yrotation
                        End Site
                        {
                          OFFSET 0.0145 -0.0179 0.0127
                        }
                      }
                    }
                  }
                  JOINT lMid1
                  {
                    OFFSET 5.6954 0.21 2.1184
                    CHANNELS 6 Xposition Yposition Zposition Zrotation Xrotation Yrotation
                    JOINT lMid2
                    {
                      OFFSET 3.9766 -1.54 2.3863
                      CHANNELS 6 Xposition Yposition Zposition Zrotation Xrotation Yrotation
                      JOINT lMid2_End
                      {
                        OFFSET 1.4042 -1.926 1.125
                        CHANNELS 6 Xposition Yposition Zposition Zrotation Xrotation Yrotation
                        End Site
                        {
                          OFFSET 0.014 -0.0193 0.0113
                        }
                      }
                    }
                  }
                }
                JOINT lCarpal2
                {
                  OFFSET 2.0956 0.66 -0.3894
                  CHANNELS 6 Xposition Yposition Zposition Zrotation Xrotation Yrotation
                  JOINT lRing1
                  {
                    OFFSET 5.0395 -0.09 2.4971
                    CHANNELS 6 Xposition Yposition Zposition Zrotation Xrotation Yrotation
                    JOINT lRing2
                    {
                      OFFSET 3.7921 -1.552 1.4806
                      CHANNELS 6 Xposition Yposition Zposition Zrotation Xrotation Yrotation
                      JOINT lRing2_End
                      {
                        OFFSET 1.4655 -1.808 0.9609
                        CHANNELS 6 Xposition Yposition Zposition Zrotation Xrotation Yrotation
                        End Site
                        {
                          OFFSET 0.0147 -0.0181 0.0096
                        }
                      }
                    }
                  }
                  JOINT lPinky1
                  {
                    OFFSET 4.9141 -1.269 0.3591
                    CHANNELS 6 Xposition Yposition Zposition Zrotation Xrotation Yrotation
                    JOINT lPinky2
                    {
                      OFFSET 3.1477 -1.685 0.8462
                      CHANNELS 6 Xposition Yposition Zposition Zrotation Xrotation Yrotation
                      JOINT lPinky2_End
                      {
                        OFFSET 0.8055 -1.585 0.7955
                        CHANNELS 6 Xposition Yposition Zposition Zrotation Xrotation Yrotation
                        End Site
                        {
                          OFFSET 0.0081 -0.0158 0.008
                        }
                      }
                    }
                  }
                }
              }
            }
          }
        }
        JOINT rCollar
        {
          OFFSET -1.7069 20.075 5.0056
          CHANNELS 6 Xposition Yposition Zposition Zrotation Xrotation Yrotation
          JOINT rShldr
          {
            OFFSET -13.6458 -0.047 -4.849
            CHANNELS 6 Xposition Yposition Zposition Zrotation Xrotation Yrotation
            JOINT rForeArm
            {
              OFFSET -28.3255 -0.9759 2.2888
              CHANNELS 6 Xposition Yposition Zposition Zrotation Xrotation Yrotation
              JOINT rHand
              {
                OFFSET -22.1583 -0.53 10.8316
                CHANNELS 6 Xposition Yposition Zposition Zrotation Xrotation Yrotation
                JOINT rThumb1
                {
                  OFFSET -0.786 0.112 2.5817
                  CHANNELS 6 Xposition Yposition Zposition Zrotation Xrotation Yrotation
                  JOINT rThumb2
                  {
                    OFFSET -0.3601 -0.878 4.2331
                    CHANNELS 6 Xposition Yposition Zposition Zrotation Xrotation Yrotation
                    JOINT rThumb2_End
                    {
                      OFFSET -1.8127 -1.216 2.2227
                      CHANNELS 6 Xposition Yposition Zposition Zrotation Xrotation Yrotation
                      End Site
                      {
                        OFFSET -0.0181 -0.0122 0.0222
                      }
                    }
                  }
                }
                JOINT rCarpal1
                {
                  OFFSET -0.9571 1.114 1.7695
                  CHANNELS 6 Xposition Yposition Zposition Zrotation Xrotation Yrotation
                  JOINT rIndex1
                  {
                    OFFSET -4.1246 0.487 4.1451
                    CHANNELS 6 Xposition Yposition Zposition Zrotation Xrotation Yrotation
                    JOINT rIndex2
                    {
                      OFFSET -3.4052 -1.454 2.7682
                      CHANNELS 6 Xposition Yposition Zposition Zrotation Xrotation Yrotation
                      JOINT rIndex2_End
                      {
                        OFFSET -1.4531 -1.795 1.2713
                        CHANNELS 6 Xposition Yposition Zposition Zrotation Xrotation Yrotation
                        End Site
                        {
                          OFFSET -0.0145 -0.018 0.0127
                        }
                      }
                    }
                  }
                  JOINT rMid1
                  {
                    OFFSET -5.6954 0.21 2.1184
                    CHANNELS 6 Xposition Yposition Zposition Zrotation Xrotation Yrotation
                    JOINT rMid2
                    {
                      OFFSET -3.9766 -1.54 2.3863
                      CHANNELS 6 Xposition Yposition Zposition Zrotation Xrotation Yrotation
                      JOINT rMid2_End
                      {
                        OFFSET -1.4042 -1.926 1.125
                        CHANNELS 6 Xposition Yposition Zposition Zrotation Xrotation Yrotation
                        End Site
                        {
                          OFFSET -0.014 -0.0193 0.0113
                        }
                      }
                    }
                  }
                }
                JOINT rCarpal2
                {
                  OFFSET -2.0956 0.66 -0.3894
                  CHANNELS 6 Xposition Yposition Zposition Zrotation Xrotation Yrotation
                  JOINT rRing1
                  {
                    OFFSET -5.0395 -0.09 2.4971
                    CHANNELS 6 Xposition Yposition Zposition Zrotation Xrotation Yrotation
                    JOINT rRing2
                    {
                      OFFSET -3.7921 -1.552 1.4806
                      CHANNELS 6 Xposition Yposition Zposition Zrotation Xrotation Yrotation
                      JOINT rRing2_End
                      {
                        OFFSET -1.4655 -1.808 0.9609
                        CHANNELS 6 Xposition Yposition Zposition Zrotation Xrotation Yrotation
                        End Site
                        {
                          OFFSET -0.0147 -0.0181 0.0096
                        }
                      }
                    }
                  }
                  JOINT rPinky1
                  {
                    OFFSET -4.9141 -1.269 0.3592
                    CHANNELS 6 Xposition Yposition Zposition Zrotation Xrotation Yrotation
                    JOINT rPinky2
                    {
                      OFFSET -3.1477 -1.685 0.8462
                      CHANNELS 6 Xposition Yposition Zposition Zrotation Xrotation Yrotation
                      JOINT rPinky2_End
                      {
                        OFFSET -0.8055 -1.585 0.7955
                        CHANNELS 6 Xposition Yposition Zposition Zrotation Xrotation Yrotation
                        End Site
                        {
                          OFFSET -0.0081 -0.0158 0.008
                        }
                      }
                    }
                  }
                }
              }
            }
          }
        }
      }
    }
  }
  JOINT lThigh
  {
    OFFSET 8.367 -8.2066 0.5982
    CHANNELS 6 Xposition Yposition Zposition Zrotation Xrotation Yrotation
    JOINT lShin
    {
      OFFSET 2.1923 -43.463 -0.4932
      CHANNELS 6 Xposition Yposition Zposition Zrotation Xrotation Yrotation
      JOINT lFoot
      {
        OFFSET 0.7333 -45.8593 -2.6451
        CHANNELS 6 Xposition Yposition Zposition Zrotation Xrotation Yrotation
        End Site
        {
          OFFSET 2.6618 -4.2699 12.3931
        }
      }
    }
  }
  JOINT rThigh
  {
    OFFSET -8.367 -8.2066 0.5982
    CHANNELS 6 Xposition Yposition Zposition Zrotation Xrotation Yrotation
    JOINT rShin
    {
      OFFSET -2.1923 -43.463 -0.4931
      CHANNELS 6 Xposition Yposition Zposition Zrotation Xrotation Yrotation
      JOINT rFoot
      {
        OFFSET -0.7333 -45.8593 -2.6451
        CHANNELS 6 Xposition Yposition Zposition Zrotation Xrotation Yrotation
        End Site
        {
          OFFSET -2.6618 -4.2699 12.3931
        }
      }
    }
  }
}
MOTION
Frames:	4
Frame Time:	0.0333333
-8.83111 -1.32453 -82.1604 90.1363 -85.2668 -179.861 0 -1.186 -1.5018 2.03344 -3.06827 -0.260489 -8.88178e-016 9.964 0.2134 4.06166 -6.14383 -0.412506 0 13.134 -3.2573 4.06166 -6.14383 -0.412503 0 20.686 -1.6905 8.99784 -1.97986 0.311971 0 7.238 -0.1237 -0.0010732 -10.0018 -14.7143 1.7069 20.075 5.0056 -18.2693 -2.92266 -7.91071 13.6458 -0.047 -4.849 -47.949 0.985288 -60.4185 28.3255 -0.9759 2.2888 -9.62452 5.78591 21.3591 22.1583 -0.53 10.8316 -53.0695 28.2901 -22.9754 0.786 0.112 2.5817 -2.61313e-007 -4.5208e-007 6.70992e-007 0.3601 -0.878 4.2331 4.77083e-015 -3.18055e-015 -0 1.8127 -1.216 2.2227 4.77083e-015 0 -0 0.9571 1.114 1.7695 -4.77083e-015 3.18055e-015 -3.18055e-015 4.1246 0.487 4.1451 -2.61313e-007 -4.5208e-007 6.70992e-007 3.4052 -1.454 2.7682 1.59028e-015 -3.18055e-015 -3.18055e-015 1.4531 -1.795 1.2713 1.59028e-015 3.18055e-015 9.54166e-015 5.6954 0.21 2.1184 -2.61313e-007 -4.5208e-007 6.70992e-007 3.9766 -1.54 2.3863 1.59028e-015 -3.18055e-015 -3.18055e-015 1.4042 -1.926 1.125 1.59028e-015 3.18055e-015 9.54166e-015 2.0956 0.66 -0.3894 -4.77083e-015 3.18055e-015 -3.18055e-015 5.0395 -0.09 2.4971 -2.61313e-007 -4.5208e-007 6.70992e-007 3.7921 -1.552 1.4806 1.59028e-015 -3.18055e-015 -3.18055e-015 1.4655 -1.808 0.9609 1.59028e-015 3.18055e-015 9.54166e-015 4.9141 -1.269 0.3591 -2.61313e-007 -4.5208e-007 6.70992e-007 3.1477 -1.685 0.8462 1.59028e-015 -3.18055e-015 -3.18055e-015 0.8055 -1.585 0.7955 1.59028e-015 3.18055e-015 9.54166e-015 -1.7069 20.075 5.0056 6.87734 -19.8376 -44.15 -13.6458 -0.047 -4.849 30.8838 10.9381 -21.1787 -28.3255 -0.9759 2.2888 67.6799 -26.722 -15.0037 -22.1583 -0.53 10.8316 -32.8299 -5.31136 8.80347 -0.786 0.112 2.5817 -1.4796e-006 -2.35824e-006 1.81856e-006 -0.3601 -0.878 4.2331 -1.4796e-006 -2.35824e-006 1.81856e-006 -1.8127 -1.216 2.2227 -9.57113e-006 -2.81195e-006 4.08232e-006 -0.9571 1.114 1.7695 7.95139e-016 1.59028e-015 -0 -4.1246 0.487 4.1451 -1.4796e-006 -2.35824e-006 1.81856e-006 -3.4052 -1.454 2.7682 -1.4796e-006 -2.35824e-006 1.81856e-006 -1.4531 -1.795 1.2713 -9.57113e-006 -2.81195e-006 4.08232e-006 -5.6954 0.21 2.1184 -1.4796e-006 -2.35824e-006 1.81856e-006 -3.9766 -1.54 2.3863 -1.4796e-006 -2.35824e-006 1.81856e-006 -1.4042 -1.926 1.125 -9.57113e-006 -2.81195e-006 4.08232e-006 -2.0956 0.66 -0.3894 7.95139e-016 1.59028e-015 -0 -5.0395 -0.09 2.4971 -1.4796e-006 -2.35824e-006 1.81856e-006 -3.7921 -1.552 1.4806 -1.4796e-006 -2.35824e-006 1.81856e-006 -1.4655 -1.808 0.9609 -9.57113e-006 -2.81195e-006 4.08232e-006 -4.9141 -1.269 0.3592 -1.4796e-006 -2.35824e-006 1.81856e-006 -3.1477 -1.685 0.8462 -1.4796e-006 -2.35824e-006 1.81856e-006 -0.8055 -1.585 0.7955 -9.57113e-006 -2.81195e-006 4.08232e-006 8.367 -8.2066 0.5982 -2.23245 4.82487 8.54198 2.1923 -43.463 -0.4932 1.71283 45.0524 -2.90338 0.7333 -45.8593 -2.6451 6.74676 46.4244 1.6136 -8.367 -8.2066 0.5982 -76.4383 -18.2652 -88.4332 -2.1923 -43.463 -0.4931 140.332 51.1716 -134.977 -0.7333 -45.8593 -2.6451 2.59629 36.0067 9.85518 
-8.7649 -1.32441 -82.2006 90.1332 -85.0414 -179.864 -2.22045e-016 -1.186 -1.5018 2.03346 -3.0683 -0.260501 0 9.964 0.2134 4.06166 -6.14384 -0.412495 0 13.134 -3.2573 4.06167 -6.14384 -0.412494 0 20.686 -1.6905 8.99782 -1.97989 0.311982 0 7.238 -0.1237 -0.00108389 -10.0018 -14.844 1.7069 20.075 5.0056 -18.5199 -2.7048 -8.31918 13.6458 -0.047 -4.849 -47.7968 0.736879 -60.0754 28.3255 -0.9759 2.2888 -9.39394 5.77116 21.3562 22.1583 -0.53 10.8316 -53.2516 28.3221 -22.8537 0.786 0.112 2.5817 5.89112e-006 2.79174e-007 7.4596e-007 0.3601 -0.878 4.2331 -3.12381e-007 -2.68453e-006 -1.80787e-006 1.8127 -1.216 2.2227 1.75332e-006 1.46346e-006 2.71299e-006 0.9571 1.114 1.7695 4.77083e-015 3.18055e-015 -3.18055e-015 4.1246 0.487 4.1451 5.89112e-006 2.79174e-007 7.4596e-007 3.4052 -1.454 2.7682 -3.12381e-007 -2.68453e-006 -1.80787e-006 1.4531 -1.795 1.2713 1.75332e-006 1.46346e-006 2.71299e-006 5.6954 0.21 2.1184 5.89112e-006 2.79174e-007 7.4596e-007 3.9766 -1.54 2.3863 -3.12381e-007 -2.68453e-006 -1.80787e-006 1.4042 -1.926 1.125 1.75332e-006 1.46346e-006 2.71299e-006 2.0956 0.66 -0.3894 4.77083e-015 3.18055e-015 -3.18055e-015 5.0395 -0.09 2.4971 5.89112e-006 2.79174e-007 7.4596e-007 3.7921 -1.552 1.4806 -3.12381e-007 -2.68453e-006 -1.80787e-006 1.4655 -1.808 0.9609 1.75332e-006 1.46346e-006 2.71299e-006 4.9141 -1.269 0.3591 5.89112e-006 2.79174e-007 7.4596e-007 3.1477 -1.685 0.8462 -3.12381e-007 -2.68453e-006 -1.80787e-006 0.8055 -1.585 0.7955 1.75332e-006 1.46346e-006 2.71299e-006 -1.7069 20.075 5.0056 6.8773 -19.8376 -44.15 -13.6458 -0.047 -4.849 30.8838 10.9381 -21.1787 -28.3255 -0.9759 2.2888 67.6799 -26.722 -15.0037 -22.1583 -0.53 10.8316 -32.8299 -5.31138 8.80346 -0.786 0.112 2.5817 -1.48424e-006 -2.35532e-006 1.82008e-006 -0.3601 -0.878 4.2331 -1.48424e-006 -2.35532e-006 1.82008e-006 -1.8127 -1.216 2.2227 -1.48424e-006 -2.35532e-006 1.82008e-006 -0.9571 1.114 1.7695 -1.59028e-015 -2.38542e-015 -0 -4.1246 0.487 4.1451 -1.48424e-006 -2.35532e-006 1.82008e-006 -3.4052 -1.454 2.7682 -1.48424e-006 -2.35532e-006 1.82008e-006 -1.4531 -1.795 1.2713 -1.48424e-006 -2.35532e-006 1.82008e-006 -5.6954 0.21 2.1184 -1.48424e-006 -2.35532e-006 1.82008e-006 -3.9766 -1.54 2.3863 -1.48424e-006 -2.35532e-006 1.82008e-006 -1.4042 -1.926 1.125 -1.48424e-006 -2.35532e-006 1.82008e-006 -2.0956 0.66 -0.3894 -1.59028e-015 -2.38542e-015 -0 -5.0395 -0.09 2.4971 -1.48424e-006 -2.35532e-006 1.82008e-006 -3.7921 -1.552 1.4806 -1.48424e-006 -2.35532e-006 1.82008e-006 -1.4655 -1.808 0.9609 -1.48424e-006 -2.35532e-006 1.82008e-006 -4.9141 -1.269 0.3592 -1.48424e-006 -2.35532e-006 1.82008e-006 -3.1477 -1.685 0.8462 -1.48424e-006 -2.35532e-006 1.82008e-006 -0.8055 -1.585 0.7955 -1.48424e-006 -2.35532e-006 1.82008e-006 8.367 -8.2066 0.5982 -2.22568 5.22281 8.52961 2.1923 -43.463 -0.4932 1.62707 44.8057 -2.84777 0.7333 -45.8593 -2.6451 6.74836 46.402 1.61398 -8.367 -8.2066 0.5982 -76.3105 -18.1186 -88.1038 -2.1923 -43.463 -0.4931 140.33 51.1736 -134.981 -0.7333 -45.8593 -2.6451 2.59236 36.0094 9.85213 
-8.69874 -1.32429 -82.2407 90.1307 -84.816 -179.867 0 -1.186 -1.5018 2.03342 -3.06828 -0.260487 0 9.964 0.2134 4.06167 -6.14385 -0.412522 -1.77636e-015 13.134 -3.2573 4.06168 -6.14385 -0.412493 0 20.686 -1.6905 8.99804 -1.97965 0.311996 0 7.238 -0.1237 -0.00108209 -10.0018 -14.9736 1.7069 20.075 5.0056 -18.7687 -2.48519 -8.72656 13.6458 -0.047 -4.849 -47.6431 0.4894 -59.7318 28.3255 -0.9759 2.2888 -9.16334 5.75668 21.3534 22.1583 -0.53 10.8316 -53.4338 28.3538 -22.7318 0.786 0.112 2.5817 1.76556e-031 -3.18055e-015 3.18055e-015 0.3601 -0.878 4.2331 -1.59028e-015 0 -0 1.8127 -1.216 2.2227 8.35703e-006 -8.08414e-006 -2.15677e-006 0.9571 1.114 1.7695 1.76556e-031 -3.18055e-015 3.18055e-015 4.1246 0.487 4.1451 -1.59028e-015 0 9.54166e-015 3.4052 -1.454 2.7682 -3.18055e-015 0 3.18055e-015 1.4531 -1.795 1.2713 8.35703e-006 -8.08414e-006 -2.15677e-006 5.6954 0.21 2.1184 -1.59028e-015 0 9.54166e-015 3.9766 -1.54 2.3863 -3.18055e-015 0 3.18055e-015 1.4042 -1.926 1.125 8.35703e-006 -8.08414e-006 -2.15677e-006 2.0956 0.66 -0.3894 1.76556e-031 -3.18055e-015 3.18055e-015 5.0395 -0.09 2.4971 -1.59028e-015 0 9.54166e-015 3.7921 -1.552 1.4806 -3.18055e-015 0 3.18055e-015 1.4655 -1.808 0.9609 8.35703e-006 -8.08414e-006 -2.15677e-006 4.9141 -1.269 0.3591 -1.59028e-015 0 9.54166e-015 3.1477 -1.685 0.8462 -3.18055e-015 0 3.18055e-015 0.8055 -1.585 0.7955 8.35703e-006 -8.08414e-006 -2.15677e-006 -1.7069 20.075 5.0056 6.8773 -19.8376 -44.15 -13.6458 -0.047 -4.849 30.8838 10.9381 -21.1787 -28.3255 -0.9759 2.2888 67.6799 -26.722 -15.0037 -22.1583 -0.53 10.8316 -32.8299 -5.31137 8.80347 -0.786 0.112 2.5817 1.48888e-006 2.3524e-006 -1.8216e-006 -0.3601 -0.878 4.2331 1.48888e-006 2.3524e-006 -1.8216e-006 -1.8127 -1.216 2.2227 3.34762e-006 3.38321e-006 -7.25342e-007 -0.9571 1.114 1.7695 -4.77083e-015 0 3.18055e-015 -4.1246 0.487 4.1451 1.48888e-006 2.3524e-006 -1.8216e-006 -3.4052 -1.454 2.7682 1.48888e-006 2.3524e-006 -1.8216e-006 -1.4531 -1.795 1.2713 3.34762e-006 3.38321e-006 -7.25342e-007 -5.6954 0.21 2.1184 1.48888e-006 2.3524e-006 -1.8216e-006 -3.9766 -1.54 2.3863 1.48888e-006 2.3524e-006 -1.8216e-006 -1.4042 -1.926 1.125 3.34762e-006 3.38321e-006 -7.25342e-007 -2.0956 0.66 -0.3894 -4.77083e-015 0 3.18055e-015 -5.0395 -0.09 2.4971 1.48888e-006 2.3524e-006 -1.8216e-006 -3.7921 -1.552 1.4806 1.48888e-006 2.3524e-006 -1.8216e-006 -1.4655 -1.808 0.9609 3.34762e-006 3.38321e-006 -7.25342e-007 -4.9141 -1.269 0.3592 1.48888e-006 2.3524e-006 -1.8216e-006 -3.1477 -1.685 0.8462 1.48888e-006 2.3524e-006 -1.8216e-006 -0.8055 -1.585 0.7955 3.34762e-006 3.38321e-006 -7.25342e-007 8.367 -8.2066 0.5982 -2.21885 5.53445 8.51307 2.1923 -43.463 -0.4932 1.55295 44.6443 -2.79031 0.7333 -45.8593 -2.6451 6.74999 46.3795 1.61434 -8.367 -8.2066 0.5982 -76.1835 -17.9719 -87.775 -2.1923 -43.463 -0.4931 140.327 51.1758 -134.984 -0.7333 -45.8593 -2.6451 2.58843 36.012 9.84907 
-8.63264 -1.32415 -82.2808 90.1284 -84.5906 -179.869 0 -1.186 -1.5018 2.03348 -3.0683 -0.260494 0 9.964 0.2134 4.06166 -6.14382 -0.412495 0 13.134 -3.2573 4.06167 -6.14385 -0.412498 0 20.686 -1.6905 8.99814 -1.98024 0.311993 0 7.238 -0.1237 -0.00110834 -10.0018 -15.1033 1.7069 20.075 5.0056 -19.016 -2.26387 -9.13291 13.6458 -0.047 -4.849 -47.4879 0.242868 -59.3874 28.3255 -0.9759 2.2888 -8.93275 5.74248 21.3506 22.1583 -0.53 10.8316 -53.6161 28.3851 -22.6098 0.786 0.112 2.5817 -1.65147e-006 1.75463e-006 1.96761e-007 0.3601 -0.878 4.2331 -9.54166e-015 6.36111e-015 6.36111e-015 1.8127 -1.216 2.2227 1.65147e-006 -1.75463e-006 -1.9676e-007 0.9571 1.114 1.7695 -3.18055e-015 0 -0 4.1246 0.487 4.1451 -1.65147e-006 1.75463e-006 1.96761e-007 3.4052 -1.454 2.7682 -4.77083e-015 6.36111e-015 6.36111e-015 1.4531 -1.795 1.2713 1.65147e-006 -1.75463e-006 -1.9676e-007 5.6954 0.21 2.1184 -1.65147e-006 1.75463e-006 1.96761e-007 3.9766 -1.54 2.3863 -4.77083e-015 6.36111e-015 6.36111e-015 1.4042 -1.926 1.125 1.65147e-006 -1.75463e-006 -1.9676e-007 2.0956 0.66 -0.3894 -3.18055e-015 0 -0 5.0395 -0.09 2.4971 -1.65147e-006 1.75463e-006 1.96761e-007 3.7921 -1.552 1.4806 -4.77083e-015 6.36111e-015 6.36111e-015 1.4655 -1.808 0.9609 1.65147e-006 -1.75463e-006 -1.9676e-007 4.9141 -1.269 0.3591 -1.65147e-006 1.75463e-006 1.96761e-007 3.1477 -1.685 0.8462 -4.77083e-015 6.36111e-015 6.36111e-015 0.8055 -1.585 0.7955 1.65147e-006 -1.75463e-006 -1.9676e-007 -1.7069 20.075 5.0056 6.8773 -19.8376 -44.15 -13.6458 -0.047 -4.849 30.8838 10.9381 -21.1787 -28.3255 -0.9759 2.2888 67.6799 -26.722 -15.0037 -22.1583 -0.53 10.8316 -32.8299 -5.31136 8.80347 -0.786 0.112 2.5817 -2.56668e-006 -1.54524e-006 3.08352e-006 -0.3601 -0.878 4.2331 -7.40044e-006 -4.98761e-006 -1.69027e-006 -1.8127 -1.216 2.2227 -1.49351e-006 -2.34946e-006 1.8231e-006 -0.9571 1.114 1.7695 -1.59028e-015 -7.95139e-016 -3.18055e-015 -4.1246 0.487 4.1451 -2.56668e-006 -1.54524e-006 3.08352e-006 -3.4052 -1.454 2.7682 -7.40044e-006 -4.98761e-006 -1.69027e-006 -1.4531 -1.795 1.2713 -1.49351e-006 -2.34946e-006 1.8231e-006 -5.6954 0.21 2.1184 -2.56668e-006 -1.54524e-006 3.08352e-006 -3.9766 -1.54 2.3863 -7.40044e-006 -4.98761e-006 -1.69027e-006 -1.4042 -1.926 1.125 -1.49351e-006 -2.34946e-006 1.8231e-006 -2.0956 0.66 -0.3894 -1.59028e-015 -7.95139e-016 -3.18055e-015 -5.0395 -0.09 2.4971 -2.56668e-006 -1.54524e-006 3.08352e-006 -3.7921 -1.552 1.4806 -7.40044e-006 -4.98761e-006 -1.69027e-006 -1.4655 -1.808 0.9609 -1.49351e-006 -2.34946e-006 1.8231e-006 -4.9141 -1.269 0.3592 -2.56668e-006 -1.54524e-006 3.08352e-006 -3.1477 -1.685 0.8462 -7.40044e-006 -4.98761e-006 -1.69027e-006 -0.8055 -1.585 0.7955 -1.49351e-006 -2.34946e-006 1.8231e-006 8.367 -8.2066 0.5982 -2.21177 5.97402 8.50259 2.1923 -43.463 -0.4932 1.46293 44.3563 -2.73726 0.7333 -45.8593 -2.6451 6.75178 46.357 1.61462 -8.367 -8.2066 0.5982 -76.0572 -17.8248 -87.4468 -2.1923 -43.463 -0.4931 140.324 51.1782 -134.987 -0.7333 -45.8593 -2.6451 2.58447 36.0147 9.84603 
